<svg width="34" height="34" viewBox="0 0 34 34" fill="none" xmlns="http://www.w3.org/2000/svg">
<path d="M26.7456 24.0209L27.1817 24.2654L27.1821 24.2649L26.7456 24.0209ZM26.05 21.3481L25.7941 21.7777L25.7944 21.7779L26.05 21.3481ZM8.25437 24.0209L7.81792 24.2649L7.81825 24.2654L8.25437 24.0209ZM8.95003 21.3481L9.20558 21.7779L9.20592 21.7777L8.95003 21.3481ZM15.2323 20.0768C15.4618 19.9232 15.5233 19.6127 15.3698 19.3832C15.2162 19.1536 14.9057 19.0921 14.6762 19.2457L15.2323 20.0768ZM11.2144 21.562C10.9849 21.7155 10.9234 22.0261 11.0769 22.2556C11.2305 22.4851 11.541 22.5466 11.7706 22.3931L11.2144 21.562ZM23.2294 22.3931C23.459 22.5466 23.7695 22.4851 23.9231 22.2556C24.0766 22.0261 24.0151 21.7155 23.7856 21.562L23.2294 22.3931ZM20.3238 19.2457C20.0943 19.0921 19.7838 19.1536 19.6302 19.3832C19.4767 19.6127 19.5382 19.9232 19.7677 20.0768L20.3238 19.2457ZM32.5 17C32.5 25.5604 25.5604 32.5 17 32.5V33.5C26.1127 33.5 33.5 26.1127 33.5 17H32.5ZM17 32.5C8.43959 32.5 1.5 25.5604 1.5 17H0.5C0.5 26.1127 7.8873 33.5 17 33.5V32.5ZM1.5 17C1.5 8.43959 8.43959 1.5 17 1.5V0.5C7.8873 0.5 0.5 7.8873 0.5 17H1.5ZM17 1.5C25.5604 1.5 32.5 8.43959 32.5 17H33.5C33.5 7.8873 26.1127 0.5 17 0.5V1.5ZM20.0394 17.9555C20.0394 19.4219 18.8887 20.5854 17.5 20.5854V21.5854C19.4685 21.5854 21.0394 19.9463 21.0394 17.9555H20.0394ZM17.5 20.5854C16.1113 20.5854 14.9606 19.4219 14.9606 17.9555H13.9606C13.9606 19.9463 15.5315 21.5854 17.5 21.5854V20.5854ZM14.9606 17.9555C14.9606 16.4891 16.1113 15.3256 17.5 15.3256V14.3256C15.5315 14.3256 13.9606 15.9647 13.9606 17.9555H14.9606ZM17.5 15.3256C18.8887 15.3256 20.0394 16.4891 20.0394 17.9555H21.0394C21.0394 15.9647 19.4685 14.3256 17.5 14.3256V15.3256ZM18.8998 8.95641C18.8998 9.7747 18.2594 10.4128 17.5 10.4128V11.4128C18.8391 11.4128 19.8998 10.2991 19.8998 8.95641H18.8998ZM17.5 10.4128C16.7406 10.4128 16.1002 9.7747 16.1002 8.95641H15.1002C15.1002 10.2991 16.1609 11.4128 17.5 11.4128V10.4128ZM16.1002 8.95641C16.1002 8.13812 16.7406 7.5 17.5 7.5V6.5C16.1609 6.5 15.1002 7.61371 15.1002 8.95641H16.1002ZM17.5 7.5C18.2594 7.5 18.8998 8.13812 18.8998 8.95641H19.8998C19.8998 7.61371 18.8391 6.5 17.5 6.5V7.5ZM18 14.8256V10.9128H17V14.8256H18ZM23.8946 25.1671C25.0519 25.8552 26.5228 25.4406 27.1817 24.2654L26.3095 23.7764C25.9183 24.474 25.0671 24.7008 24.4057 24.3075L23.8946 25.1671ZM27.1821 24.2649C27.834 23.0985 27.4541 21.6013 26.3055 20.9184L25.7944 21.7779C26.4645 22.1763 26.7041 23.0705 26.3092 23.777L27.1821 24.2649ZM26.3059 20.9186C25.15 20.23 23.6773 20.6449 23.0184 21.82L23.8906 22.309C24.2819 21.6113 25.1346 21.3848 25.7941 21.7777L26.3059 20.9186ZM23.0184 21.82C22.3639 22.9872 22.7466 24.4844 23.8946 25.1671L24.4057 24.3075C23.735 23.9087 23.495 23.0146 23.8906 22.309L23.0184 21.82ZM10.5943 24.3075C9.9329 24.7008 9.08167 24.474 8.6905 23.7764L7.81825 24.2654C8.47719 25.4406 9.94814 25.8552 11.1054 25.1671L10.5943 24.3075ZM8.69082 23.777C8.29594 23.0705 8.53555 22.1763 9.20558 21.7779L8.69449 20.9184C7.54587 21.6013 7.16601 23.0985 7.81792 24.2649L8.69082 23.777ZM9.20592 21.7777C9.86541 21.3848 10.7181 21.6113 11.1094 22.309L11.9816 21.82C11.3227 20.6449 9.84999 20.23 8.69414 20.9186L9.20592 21.7777ZM11.1094 22.309C11.505 23.0146 11.265 23.9087 10.5943 24.3075L11.1054 25.1671C12.2534 24.4844 12.6361 22.9872 11.9816 21.82L11.1094 22.309ZM14.6762 19.2457L11.2144 21.562L11.7706 22.3931L15.2323 20.0768L14.6762 19.2457ZM23.7856 21.562L20.3238 19.2457L19.7677 20.0768L23.2294 22.3931L23.7856 21.562Z" fill="#575757"/>
</svg>
