<svg width="32" height="32" viewBox="0 0 32 32" fill="none" xmlns="http://www.w3.org/2000/svg">
<path d="M18.3137 21.2405C17.6276 22.0611 16.623 22.4482 15.6066 22.2907C15.2799 22.2399 15.1033 21.802 15.1819 21.4988C15.2764 21.1345 15.6052 20.999 15.9299 21.0491C16.5403 21.1433 17.1604 20.7304 17.5233 20.2424C17.9341 19.6905 18.1302 18.9574 18.2164 18.2707C18.2595 17.9241 18.4597 17.6267 18.8247 17.6267C19.1222 17.6267 19.4761 17.9256 19.433 18.2707C19.2974 19.3534 18.9999 20.4198 18.3137 21.2405Z" fill="#575757"/>
<path fill-rule="evenodd" clip-rule="evenodd" d="M9.36585 18.3642C9.36585 22.0096 12.1668 24.9749 15.6101 24.9749L15.6094 24.9756C19.0527 24.9756 21.8537 21.8469 21.8537 18.3649C21.8537 14.883 16.4402 7.18303 16.2101 6.85698L15.777 6.2439L15.3285 6.84447L15.3258 6.84824C15.2525 6.94703 13.805 8.89926 12.3774 11.2185C10.3794 14.4649 9.36585 16.8687 9.36585 18.3642ZM10.4782 18.3642C10.4782 16.0193 13.9479 10.7025 15.7533 8.18839C17.4656 10.7092 20.742 16.0164 20.742 18.3642C20.742 21.3597 18.4402 23.7973 15.6101 23.7973C12.78 23.7973 10.4782 21.3597 10.4782 18.3642Z" fill="#575757"/>
<path fill-rule="evenodd" clip-rule="evenodd" d="M16 32C24.8366 32 32 24.8366 32 16C32 7.16344 24.8366 0 16 0C7.16344 0 0 7.16344 0 16C0 24.8366 7.16344 32 16 32ZM31.2195 16C31.2195 24.4055 24.4055 31.2195 16 31.2195C7.5945 31.2195 0.780488 24.4055 0.780488 16C0.780488 7.59449 7.5945 0.780488 16 0.780488C24.4055 0.780488 31.2195 7.59449 31.2195 16Z" fill="#575757"/>
</svg>
