<svg width="32" height="32" viewBox="0 0 32 32" fill="none" xmlns="http://www.w3.org/2000/svg">
<path d="M19.5943 4.76677C19.7592 4.88523 23.4943 7.63212 23.5385 12.4473L23.3149 13.2935C23.2785 13.3069 23.241 13.3132 23.2036 13.3132C23.1351 13.3132 23.0674 13.2916 23.0111 13.2493C22.9895 13.2332 22.9704 13.2147 22.9537 13.1944C22.9277 13.1625 22.908 13.126 22.8955 13.087C22.8834 13.0495 22.8779 13.0097 22.8798 12.9692C23.0831 8.85145 20.2628 6.169 19.4398 5.47748C18.7408 6.16062 16.3006 8.02286 10.4913 8.02286C10.4319 8.02286 10.3763 8.00666 10.3284 7.9784C10.2865 7.95381 10.2507 7.92004 10.2235 7.87971C10.2145 7.8665 10.2065 7.85248 10.1996 7.83789L10.1928 7.82295L10.1862 7.80618C10.1738 7.77148 10.167 7.73415 10.167 7.69508C10.167 7.51413 10.3124 7.36719 10.4913 7.36719C17.1381 7.36719 19.1306 4.85869 19.15 4.83307C19.2561 4.69405 19.4524 4.66452 19.5943 4.76677Z" fill="#575757"/>
<path d="M8.17796 12.6551C8.24012 12.7421 8.33881 12.7908 8.44049 12.7908C8.4784 12.7908 8.51677 12.7839 8.55365 12.7701C8.69026 12.7185 8.77585 12.5809 8.76321 12.4339C8.56778 10.2405 9.02815 9.34835 9.51666 8.62247C9.6173 8.47312 9.57893 8.26907 9.43107 8.16739C9.28332 8.0656 9.08157 8.10443 8.98093 8.25391C8.55032 8.89373 8.10846 9.70129 8.0725 11.2721L8.17796 12.6551Z" fill="#575757"/>
<path d="M12.5664 22.3404C10.9565 20.8463 9.80687 18.7044 9.34168 17.4604L9.34122 17.4594C8.67475 17.6801 8.16337 17.4634 7.83571 17.2191C6.80905 16.4534 6.42222 14.5955 6.65257 13.3132C6.68463 13.1353 6.85237 13.0159 7.0293 13.0493C7.20577 13.0817 7.32238 13.2523 7.29033 13.4303C7.07353 14.6364 7.50862 16.1604 8.2207 16.6918C8.56491 16.9483 8.94554 16.9615 9.38396 16.731C9.42256 16.7106 9.46438 16.6986 9.50689 16.6952C9.55756 16.6912 9.60915 16.6992 9.65717 16.7192C9.70784 16.7403 9.75161 16.7738 9.78527 16.8159C9.81043 16.8474 9.82985 16.8837 9.84237 16.9233C10.5214 19.0941 13.1711 23.35 16.2184 23.35C16.3973 23.35 16.5426 23.4969 16.5426 23.6777C16.5426 23.8586 16.3973 24.0055 16.2184 24.0055C15.168 24.0055 14.1968 23.5962 13.3301 22.9694C13.4122 23.8527 13.3242 25.2893 12.1698 26.3455C12.1075 26.4026 12.0298 26.4306 11.9524 26.4306C11.9192 26.4306 11.8861 26.4254 11.8544 26.4152C11.8016 26.3983 11.7524 26.3674 11.7123 26.323C11.6874 26.2953 11.6682 26.2644 11.6544 26.2317C11.6494 26.2198 11.6451 26.2076 11.6415 26.1952C11.6363 26.1768 11.6326 26.1581 11.6305 26.1392C11.6293 26.128 11.6287 26.1167 11.6286 26.1055C11.6286 26.0988 11.6287 26.0921 11.629 26.0856C11.6296 26.0766 11.6304 26.0677 11.6317 26.0587C11.6334 26.0458 11.6359 26.0331 11.6391 26.0206C11.6544 25.9609 11.6866 25.9049 11.7352 25.8604C13.1765 24.5408 12.5762 22.3797 12.5699 22.3581L12.5686 22.3533L12.5678 22.348L12.5664 22.3404Z" fill="#575757"/>
<path d="M16.2461 17.024C16.6117 17.0063 16.93 16.8338 17.1202 16.5507C17.2207 16.4007 17.1823 16.1973 17.0341 16.0956C16.8864 15.9938 16.6846 16.0326 16.584 16.1826C16.5097 16.2937 16.375 16.3614 16.2155 16.3693C16.0299 16.3781 15.8567 16.3064 15.7499 16.1761C15.6884 16.1013 15.6009 16.0612 15.5117 16.0581C15.4351 16.0555 15.3572 16.0801 15.2934 16.1334C15.1558 16.2489 15.1368 16.4553 15.2511 16.5949C15.4747 16.8672 15.8203 17.026 16.1854 17.026C16.2053 17.0254 16.2258 17.0254 16.2461 17.024Z" fill="#575757"/>
<path d="M14.2138 19.1585C14.1214 19.3133 14.1705 19.5148 14.3241 19.6082C14.803 19.9002 15.5039 20.0447 16.1931 20.0447C16.9169 20.0447 17.6276 19.8849 18.053 19.5679C18.1973 19.4607 18.2279 19.2553 18.122 19.1098C18.016 18.9639 17.8133 18.9329 17.6689 19.0401C17.0463 19.5036 15.4144 19.5075 14.659 19.0464C14.506 18.953 14.3066 19.0026 14.2138 19.1585Z" fill="#575757"/>
<path d="M13.7724 12.3784C13.1332 12.662 12.4439 12.6468 11.8095 12.3336C11.6482 12.2536 11.4547 12.3219 11.3759 12.4841C11.2972 12.6468 11.3643 12.8428 11.5247 12.9224C11.9472 13.1314 12.3895 13.237 12.8386 13.237C13.2449 13.237 13.6465 13.15 14.033 12.9785C14.1968 12.9058 14.2711 12.7127 14.1992 12.5465C14.1273 12.3809 13.9367 12.3057 13.7724 12.3784Z" fill="#575757"/>
<path d="M18.3072 12.9224C18.7295 13.1314 19.172 13.237 19.6211 13.237C20.0275 13.237 20.429 13.15 20.8154 12.9785C20.9792 12.9058 21.0537 12.7127 20.9816 12.5465C20.9097 12.3809 20.7186 12.3057 20.5543 12.3784C19.9152 12.662 19.2259 12.6468 18.5916 12.3336C18.4301 12.2536 18.2367 12.3219 18.158 12.4841C18.0792 12.6468 18.1467 12.8428 18.3072 12.9224Z" fill="#575757"/>
<path d="M23.9764 15.0998C23.8657 15.1219 23.7655 15.1646 23.6781 15.2241C23.6517 15.1644 23.6243 15.1059 23.5958 15.0494C23.5789 15.0159 23.5616 14.983 23.5439 14.9509C23.5211 14.91 23.4977 14.8704 23.4733 14.8324C23.1414 14.3143 22.4739 14.077 22.0161 14.3139C21.9013 14.3734 21.6185 14.5689 21.6049 15.0379C21.5095 15.0379 21.4152 15.0565 21.3254 15.0964C21.0628 15.2134 20.7051 15.5623 20.8572 16.5944C20.8493 16.5944 20.8416 16.5936 20.8338 16.5929C20.825 16.592 20.8162 16.5912 20.8072 16.5915C20.3891 16.6091 19.8913 16.9532 19.8647 17.8625C19.834 18.9074 19.6702 19.2892 18.8079 21.1417C17.8843 23.1253 17.8887 24.7919 18.8269 28.0003C18.8686 28.1429 18.9975 28.2353 19.1374 28.2353C19.1494 28.2353 19.1614 28.2346 19.1736 28.2332C19.1921 28.231 19.2108 28.2273 19.2293 28.2215C19.4009 28.1704 19.4991 27.9881 19.4481 27.8146C18.5517 24.7501 18.5391 23.256 19.3936 21.4208C20.2467 19.589 20.4756 19.0966 20.5116 17.8821C20.5242 17.4521 20.6827 17.253 20.8339 17.2461C20.9219 17.2392 21.0352 17.31 21.0507 17.4481C21.1232 18.0821 20.9637 19.1787 20.6443 20.2417C20.5923 20.4148 20.689 20.5981 20.8602 20.6506C21.0317 20.7032 21.2125 20.6055 21.2646 20.4324C21.5372 19.5232 21.7939 18.2424 21.6943 17.3729C21.6875 17.3145 21.6758 17.2584 21.6592 17.2048C21.6584 17.2012 21.6581 17.1976 21.6574 17.1939C21.6571 17.1916 21.6566 17.1895 21.6559 17.1872C21.3254 16.0827 21.5193 15.7254 21.5854 15.696C21.5989 15.6898 21.6234 15.6922 21.6531 15.7048C21.6676 15.7111 21.6834 15.7197 21.6997 15.7309C21.7402 15.759 21.7844 15.8032 21.8217 15.8665C22.4312 16.9041 22.2591 19.1772 21.7239 20.5681C21.6592 20.7367 21.7414 20.9268 21.9087 20.9922C21.947 21.0075 21.9869 21.0148 22.0263 21.0148C22.156 21.0148 22.2786 20.9357 22.3286 20.806C22.928 19.2484 23.1181 16.7891 22.3797 15.5318C22.3727 15.52 22.3649 15.5093 22.3572 15.4986L22.3548 15.4952L22.3458 15.4828L22.3388 15.4729C22.2135 15.1332 22.2348 14.9357 22.3111 14.8964C22.4399 14.8295 22.7676 14.9342 22.9295 15.1877C23.608 16.2469 23.6572 18.6006 23.0364 20.3267C22.9752 20.4968 23.0622 20.6851 23.2304 20.7464C23.2668 20.7598 23.3042 20.7662 23.3412 20.7662C23.4733 20.7662 23.5978 20.6836 23.6459 20.5504C24.1534 19.1394 24.2453 17.3857 23.9498 16.0656V16.0548C23.9332 15.8837 23.9921 15.7633 24.1024 15.7412C24.2278 15.7166 24.4063 15.8296 24.4995 16.1398C24.9268 17.5611 24.8388 18.9472 24.186 21.0832C23.9129 21.9769 23.5383 22.6221 23.1762 23.2456C22.4652 24.47 21.8518 25.5267 22.546 27.7134C22.5902 27.8525 22.7175 27.9409 22.8545 27.9409C22.8872 27.9409 22.9207 27.936 22.9537 27.9252C23.1244 27.8696 23.2182 27.6853 23.1633 27.5128C22.5577 25.6056 23.0516 24.7548 23.7349 23.578L23.7354 23.5771L23.7361 23.5761C24.0988 22.9509 24.51 22.2422 24.8053 21.2763C25.4999 19.0022 25.5884 17.5086 25.1193 15.9491C24.9088 15.2497 24.3799 15.0182 23.976 15.0983L23.9764 15.0998Z" fill="#575757"/>
<path fill-rule="evenodd" clip-rule="evenodd" d="M16 32C24.8365 32 32 24.8365 32 16C32 7.16349 24.8365 0 16 0C7.16349 0 0 7.16349 0 16C0 24.8365 7.16349 32 16 32ZM31.0588 16C31.0588 24.3168 24.3168 31.0588 16 31.0588C7.68325 31.0588 0.941176 24.3168 0.941176 16C0.941176 7.68325 7.68325 0.941176 16 0.941176C24.3168 0.941176 31.0588 7.68325 31.0588 16Z" fill="#575757"/>
</svg>
